# xmcd
#
# Track frame offsets:
# 150
# 14637
# 36145
# 41407
# 52687
# 72480
# 74170
# 92715
# 113587
# 123490
# 145432
# 161200
# 168915
# 187405
#
# Disc length: 2714 seconds
#
#
# Revision: 0
# Processed by: cddbd v1.4PL0 Copyright (c) Steve Scherf et al.
# Submitted via: FreeRIP 2.00 
#
DISCID=d10a980e
DTITLE=R.L. Burnside - Heritage of The Blues
DYEAR=2003
DGENRE=Blues
TTITLE0=Jumper Hqangin' On The Line
TTITLE1=Fireman Ring The Bell
TTITLE2=Stutterin' Boy
TTITLE3=Goin' Down South
TTITLE4=Nightmare Blues
TTITLE5=I Love Mississippi
TTITLE6=Goin' Away, Baby
TTITLE7=Bad Luck City
TTITLE8=No Monkeys On This Train
TTITLE9=Rollin' And Tumblin'
TTITLE10=Sound Machine Groove
TTITLE11=Everything Like Whiskey
TTITLE12=Last Night
TTITLE13=Long Haired Doney
EXTD=
EXTT0=
EXTT1=
EXTT2=
EXTT3=
EXTT4=
EXTT5=
EXTT6=
EXTT7=
EXTT8=
EXTT9=
EXTT10=
EXTT11=
EXTT12=
EXTT13=
PLAYORDER=
